<?xml version="1.0" encoding="UTF-8" standalone="no"?>
<!-- Created with Inkscape (http://www.inkscape.org/) -->

<svg
   version="1.1"
   id="svg1"
   width="1024"
   height="1024"
   viewBox="0 0 1024 1024"
   sodipodi:docname="monito_luna.svg"
   inkscape:version="1.4.2 (f4327f4, 2025-05-13)"
   xmlns:inkscape="http://www.inkscape.org/namespaces/inkscape"
   xmlns:sodipodi="http://sodipodi.sourceforge.net/DTD/sodipodi-0.dtd"
   xmlns="http://www.w3.org/2000/svg"
   xmlns:svg="http://www.w3.org/2000/svg">
  <defs
     id="defs1" />
  <sodipodi:namedview
     id="namedview1"
     pagecolor="#ffffff"
     bordercolor="#000000"
     borderopacity="0.25"
     inkscape:showpageshadow="2"
     inkscape:pageopacity="0.0"
     inkscape:pagecheckerboard="0"
     inkscape:deskcolor="#d1d1d1"
     inkscape:zoom="0.53378276"
     inkscape:cx="493.64652"
     inkscape:cy="519.87442"
     inkscape:window-width="1920"
     inkscape:window-height="991"
     inkscape:window-x="-9"
     inkscape:window-y="-9"
     inkscape:window-maximized="1"
     inkscape:current-layer="g1" />
  <g
     inkscape:groupmode="layer"
     inkscape:label="Image"
     id="g1">
    <path
       style="fill:#000000;stroke-width:1.01049"
       d="m 656.92534,967.14599 c -3.36836,-3.47813 0.72403,-11.00576 8.65048,-15.91187 11.14575,-6.89871 25.04513,-7.89339 61.75379,-4.41931 26.62923,2.52016 56.52479,2.72404 67.41319,0.45972 13.88734,-2.88796 22.23691,-8.64744 23.6268,-16.29766 0.34536,-1.90055 0.13573,-4.40496 -0.46569,-5.56533 -2.82472,-5.45012 -27.56665,-13.80044 -61.45218,-20.73992 l -11.15152,-2.28374 -5.50566,5.1959 c -10.4963,9.9058 -22.47775,15.23713 -40.97409,18.23208 -8.98052,1.45414 -15.81918,1.6372 -44.01411,1.17811 -39.98724,-0.65108 -48.88164,-1.96039 -65.97725,-9.7122 -5.69509,-2.58238 -5.79771,-2.59048 -11.43572,-0.90189 -16.32574,4.88958 -32.36787,5.99669 -70.32572,4.85339 -33.15404,-0.99861 -36.27043,-1.5642 -40.02502,-7.26437 -2.70987,-4.11389 -2.8115,-8.36274 -0.33502,-13.99396 3.49854,-7.95517 11.28338,-12.08005 33.82836,-17.92434 7.34601,-1.90432 14.70226,-4.39946 16.34711,-5.54477 3.91152,-2.72359 6.64794,-9.87203 12.19635,-31.86038 5.0168,-19.88181 9.945,-44.61033 17.2921,-86.76694 5.90312,-33.87099 6.96943,-38.96447 11.07118,-52.88163 5.67589,-19.25868 11.82423,-32.56059 20.66633,-44.71203 l 4.01772,-5.52135 -7.35605,-2.68108 c -19.55916,-7.12881 -35.43553,-22.90736 -41.37842,-41.12358 -1.51071,-4.6308 -2.08508,-8.90151 -2.05575,-15.28595 0.0567,-12.34996 2.88469,-20.13826 10.34844,-28.49946 6.05864,-6.78714 11.09245,-9.97223 23.15415,-14.6505 14.66845,-5.68931 18.21621,-9.5287 22.28276,-24.11391 3.9316,-14.10128 8.33475,-20.15739 17.86747,-24.57488 16.22092,-7.51682 43.3924,-7.7407 64.40439,-0.53068 14.6607,5.03067 30.64535,17.93897 39.77563,32.12058 4.97703,7.73053 11.11174,22.91922 11.16634,27.64613 0.0209,1.79843 0.67739,3.06643 1.77323,3.42425 9.66358,3.15549 16.32126,8.64357 19.78589,16.30996 1.89266,4.18794 2.32204,6.85498 2.33,14.47155 0.0249,23.98957 -14.2682,43.42276 -37.99166,51.65408 l -8.21741,2.8512 5.99799,6.58469 c 7.61529,8.36013 16.58915,19.21886 22.41352,27.12125 31.46265,42.68802 48.4088,96.97364 44.75136,143.35732 -1.92856,24.45831 -6.82792,43.0054 -15.08064,57.08975 -3.17734,5.42253 -3.48889,6.44974 -2.08199,6.86531 0.90978,0.26878 6.57663,1.47192 12.59281,2.67363 6.01619,1.20173 16.75582,3.75139 23.86586,5.6659 29.44957,7.92986 38.28481,14.56079 38.28481,28.73309 0,12.92893 -9.56295,22.43569 -28.0739,27.90911 -8.81108,2.60529 -42.35036,2.98663 -66.48948,0.75595 -11.16007,-1.03128 -27.89829,-1.88443 -37.19603,-1.89588 -15.35499,-0.0189 -17.43122,0.19621 -22.64372,2.34595 -3.60464,1.48667 -6.74787,3.67275 -8.45249,5.87881 -2.84193,3.67784 -6.68075,4.65263 -8.97854,2.2799 z m 51.94105,-54.63906 c 3.24486,-0.9863 8.76653,-3.23661 12.27033,-5.00069 19.8384,-9.98812 34.1426,-35.20378 38.5719,-67.99493 2.11521,-15.65938 1.42489,-41.27144 -1.52215,-56.47552 -4.98269,-25.70617 -17.59788,-57.00523 -31.77599,-78.83818 -8.8233,-13.58703 -13.54974,-19.70496 -28.04387,-36.29997 -12.67078,-14.50748 -14.77515,-17.42014 -14.7845,-20.46356 -0.0129,-4.15616 2.14296,-5.54234 10.26142,-6.59809 21.40181,-2.78311 38.94242,-20.888 40.22461,-41.51862 0.82088,-13.20788 -4.01125,-19.73901 -15.55895,-21.02942 -5.50575,-0.61524 -5.53111,-0.63408 -6.35886,-4.72501 -2.54947,-12.59879 -4.18885,-18.08619 -7.34929,-24.59949 -13.03254,-26.85845 -39.51668,-40.94523 -73.86601,-39.2889 -16.85039,0.81253 -25.98922,4.36742 -30.15302,11.72921 -1.02116,1.8054 -2.77709,6.65559 -3.90216,10.7782 -4.95276,18.14877 -11.05854,24.81992 -27.97287,30.56308 -3.72626,1.26521 -9.54356,4.21684 -12.92734,6.55915 -18.65465,12.91304 -19.57825,36.52488 -2.18731,55.92149 6.82196,7.60878 15.54304,13.12923 27.85613,17.63299 13.26076,4.85043 16.11781,9.07431 10.57794,15.63852 -5.13434,6.08358 -13.18021,19.26043 -16.9902,27.82505 -6.85089,15.40029 -11.82344,33.79731 -16.42677,60.77458 -13.27945,77.82189 -23.67085,123.04195 -30.88828,134.4162 -2.76645,4.35979 -7.20212,6.41593 -23.33951,10.8191 -23.18588,6.32636 -29.53171,9.44495 -28.66578,14.08767 0.23448,1.25748 1.62825,2.09483 4.31336,2.59152 6.16097,1.13963 70.94841,0.99314 79.17089,-0.179 14.67681,-2.09225 14.65284,-2.07097 9.43487,-8.36565 -5.08671,-6.13648 -9.48319,-16.2763 -11.31778,-26.10333 -1.52364,-8.1611 -1.52622,-9.54383 -0.0358,-18.59287 2.88618,-17.5183 11.68273,-30.80943 24.37101,-36.82336 l 6.1381,-2.9093 2.08876,-8.28638 c 12.55424,-49.80457 16.91184,-60.08275 23.04368,-54.3526 2.37386,2.21841 2.29172,2.80634 -2.63499,18.85528 -3.63537,11.84241 -11.43771,41.14429 -11.43771,42.95476 0,0.5311 1.93234,1.26486 4.29406,1.63058 13.03573,2.01856 31.5978,16.91186 42.42713,34.04153 4.09816,6.48234 5.02674,8.74865 4.78759,11.68498 -0.25577,3.1408 -0.68177,3.68849 -3.09143,3.97379 -3.5571,0.42116 -4.82826,-0.71464 -10.05558,-8.98457 -9.15772,-14.48803 -21.31708,-25.05903 -33.17413,-28.84069 -7.65567,-2.44171 -9.30341,-2.49534 -15.76708,-0.51325 -8.63198,2.64698 -17.11629,13.16565 -20.22024,25.06853 -1.82862,7.01249 -1.38731,18.55689 0.98784,25.83706 6.33997,19.43368 21.6169,30.91629 46.2583,34.76925 3.26027,0.50978 24.27465,0.81376 46.69861,0.67551 35.405,-0.21829 41.54727,-0.48738 46.67068,-2.04465 z M 374.31385,531.29092 C 319.86058,525.70812 267.88887,500.89974 230.54878,462.66554 182.76246,413.73496 158.54479,348.415 162.59368,279.3768 c 2.11193,-36.01121 9.7222,-66.26985 24.6633,-98.06205 17.17951,-36.55516 40.1504,-64.85771 74.19123,-91.411343 38.09783,-29.718303 85.32633,-48.617148 132.24362,-52.918279 20.24401,-1.855865 32.76364,-0.04268 33.96986,4.919766 1.19399,4.912454 1.26111,4.861965 -20.53229,15.447192 -34.23945,16.630343 -63.47105,42.002983 -82.22175,71.367384 -22.4218,35.11349 -33.3658,77.54404 -31.82291,123.37935 1.07021,31.79335 6.29141,54.57255 18.57319,81.03167 29.00135,62.4787 84.34262,103.49616 151.16363,112.03843 36.14752,4.62105 68.3546,-1.51325 103.39683,-19.6934 9.01503,-4.6771 17.0973,-8.50381 17.96045,-8.50381 2.19058,0 5.92211,3.81013 5.92211,6.04691 0,2.26822 -3.91102,7.96436 -13.82638,20.1372 -29.05181,35.66603 -67.63226,62.69594 -109.97774,77.05161 -25.15113,8.52655 -45.23604,11.79905 -71.10036,11.58461 -9.5712,-0.0794 -18.96838,-0.30486 -20.88262,-0.50112 z m 43.125,-12.15371 c 18.38655,-2.2209 30.90051,-5.07503 47.86357,-10.91648 23.34886,-8.04049 44.55805,-19.52445 64.82881,-35.1022 9.44769,-7.26044 36.62921,-33.35636 35.72092,-34.29426 -0.23468,-0.24233 -1.79859,0.29199 -3.47547,1.18738 -13.58355,7.25332 -39.14935,14.90501 -56.9137,17.03392 -13.39272,1.60502 -42.10792,0.81097 -53.5851,-1.48176 -4.64887,-0.92868 -12.92734,-2.88027 -18.3966,-4.33689 C 376.8138,436.13481 329.11848,395.62001 303.2223,340.57846 287.67427,307.5316 280.92225,274.77187 282.14273,238.30369 c 1.17409,-35.08212 7.7118,-63.36028 21.51347,-93.05423 10.13274,-21.80033 21.42289,-37.78221 39.47451,-55.878514 15.39041,-15.428501 31.53337,-27.775208 46.8451,-35.828772 4.51214,-2.373269 8.20389,-4.561411 8.20389,-4.862538 0,-0.736669 -12.4527,0.545156 -22.87144,2.354287 -50.16453,8.710645 -96.62164,33.532044 -133.32192,71.232057 -30.20868,31.03158 -49.00742,63.71908 -60.07713,104.46289 -5.96411,21.95185 -7.62244,33.98084 -8.19097,59.41463 -0.68587,30.68231 1.59201,49.5484 9.06738,75.09909 11.98879,40.97744 38.11864,80.43164 71.70172,108.26444 33.34301,27.63384 71.87776,43.82459 117.83769,49.51067 15.5486,1.92365 29.86374,1.96157 45.11382,0.11951 z m 311.43876,-158.8695 c -0.85141,-1.25517 -1.55336,-3.91208 -1.55983,-5.90426 -0.0278,-8.51994 -4.26513,-19.74484 -9.79007,-25.93408 -4.8397,-5.42156 -10.7816,-8.61923 -19.52734,-10.50874 -7.51904,-1.62448 -9.45277,-2.90325 -9.45277,-6.25115 0,-3.63511 2.24548,-5.2003 10.08233,-7.02778 16.60019,-3.87102 25.32426,-14.3816 27.90445,-33.61874 1.17331,-8.74833 2.78903,-12.18272 5.73129,-12.18272 3.7002,0 5.02297,2.45883 6.38262,11.8651 1.60717,11.11801 4.39053,18.06964 9.36437,23.38807 5.15642,5.51359 10.55607,8.55299 18.61835,10.47996 7.71712,1.84447 10.41914,3.73344 10.41914,7.28397 0,3.06491 -3.08835,5.11981 -9.95704,6.62528 -7.76167,1.70116 -13.82917,5.15514 -18.76085,10.67974 -5.48149,6.14062 -7.92187,11.93686 -9.64001,22.89609 -0.75923,4.84308 -1.94835,9.17782 -2.64245,9.63277 -2.33149,1.52806 -5.61176,0.87702 -7.17219,-1.42351 z m 6.82952,-34.534 c 1.64893,-3.29268 12.06329,-13.49843 13.77427,-13.49843 0.60998,0 -0.98039,-1.36826 -3.53413,-3.04059 -2.55375,-1.67232 -6.61164,-5.80179 -9.01762,-9.17658 l -4.37451,-6.13601 -3.15685,5.03068 c -3.13478,4.99562 -10.47403,12.29568 -12.36162,12.29568 -0.54195,0 1.4059,1.73277 4.32847,3.8506 2.92257,2.11783 6.69079,6.02027 8.37373,8.67208 1.68304,2.65182 3.38408,4.84666 3.78025,4.87744 0.39618,0.0308 1.38074,-1.26292 2.18801,-2.87487 z m -225.6438,-24.14374 c -1.48864,-1.12402 -1.99181,-3.32454 -2.52372,-11.0384 -0.36544,-5.299 -1.25723,-10.91658 -1.98196,-12.48353 -1.93781,-4.19033 -6.63441,-6.69704 -15.41774,-8.22897 -6.49469,-1.13277 -8.13756,-1.82432 -9.8018,-4.12618 l -1.99947,-2.76534 2.02343,-2.7986 c 1.65798,-2.29302 3.47845,-3.09892 10.07656,-4.46087 13.5749,-2.80204 16.08221,-5.93866 17.04927,-21.32856 0.49233,-7.83467 0.95374,-9.85672 2.51874,-11.0384 5.36704,-4.0524 8.00899,-0.60604 9.33225,12.17354 1.52135,14.69282 4.25568,17.88556 17.4704,20.39985 7.58835,1.44378 9.18348,2.40268 10.02466,6.02622 1.04264,4.4907 -1.30437,6.25177 -10.31791,7.74203 -13.52836,2.23674 -15.78806,4.86587 -17.47547,20.33224 -0.62986,5.77256 -1.48227,11.0588 -1.89426,11.7472 -0.99978,1.67035 -4.77665,1.58917 -7.08298,-0.15223 z M 639.43078,186.05702 c -0.97045,-1.1073 -2.13222,-4.97598 -2.6685,-8.88573 -2.24707,-16.38454 -12.61977,-27.65682 -28.69412,-31.18256 -6.28736,-1.37907 -8.02887,-2.60044 -8.00789,-5.6161 0.0259,-3.74187 1.47889,-4.87766 8.85045,-6.91917 8.36707,-2.31722 13.11718,-5.18628 18.19444,-10.98947 6.31281,-7.21529 8.26246,-12.37387 9.70843,-25.687563 0.93912,-8.647501 2.48652,-11.058718 6.4393,-10.034273 3.1669,0.820754 4.52388,4.115823 4.52388,10.985383 0,2.804823 0.91157,7.893903 2.02571,11.309073 4.5718,14.01368 11.16057,20.2675 25.75156,24.44269 7.34362,2.10136 8.97147,3.2425 9.0007,6.30938 0.0288,3.06816 -2.51426,4.95729 -8.93448,6.6361 -16.64365,4.35211 -25.71466,14.74451 -27.69483,31.72901 -0.43635,3.74244 -1.20771,7.20343 -1.71407,7.69107 -2.13012,2.05141 -5.0875,2.14393 -6.78058,0.21216 z m 13.91936,-42.65722 4.33493,-3.41787 -4.04337,-2.8934 c -2.2238,-1.59136 -5.75187,-5.35715 -7.84013,-8.36842 l -3.79686,-5.47502 -2.13072,3.55996 c -1.17182,1.95797 -4.5549,5.84781 -7.51785,8.64408 l -5.38722,5.08411 3.80561,2.60059 c 2.09314,1.43032 5.54434,4.69169 7.66929,7.24748 l 3.86369,4.6469 3.35385,-4.10528 c 1.84463,-2.2579 5.30458,-5.64331 7.68878,-7.52313 z"
       id="path1" />
  </g>
</svg>
