<?xml version="1.0" encoding="UTF-8" standalone="no"?>
<!-- Created with Inkscape (http://www.inkscape.org/) -->

<svg
   version="1.1"
   id="svg1"
   width="1024"
   height="1536"
   viewBox="0 0 1024 1536"
   sodipodi:docname="silueta 2.svg"
   inkscape:version="1.4.2 (f4327f4, 2025-05-13)"
   xmlns:inkscape="http://www.inkscape.org/namespaces/inkscape"
   xmlns:sodipodi="http://sodipodi.sourceforge.net/DTD/sodipodi-0.dtd"
   xmlns="http://www.w3.org/2000/svg"
   xmlns:svg="http://www.w3.org/2000/svg">
  <defs
     id="defs1" />
  <sodipodi:namedview
     id="namedview1"
     pagecolor="#ffffff"
     bordercolor="#000000"
     borderopacity="0.25"
     inkscape:showpageshadow="2"
     inkscape:pageopacity="0.0"
     inkscape:pagecheckerboard="0"
     inkscape:deskcolor="#d1d1d1"
     inkscape:zoom="0.50325521"
     inkscape:cx="511.66882"
     inkscape:cy="768"
     inkscape:window-width="1920"
     inkscape:window-height="991"
     inkscape:window-x="-9"
     inkscape:window-y="-9"
     inkscape:window-maximized="1"
     inkscape:current-layer="g1" />
  <g
     inkscape:groupmode="layer"
     inkscape:label="Image"
     id="g1">
    <path
       style="fill:#000000;stroke-width:0.757275"
       d="m 443.13206,1162.4497 c -0.70806,-1.9531 0.31619,-17.16 1.64329,-24.3979 1.66742,-9.094 6.19296,-22.6186 11.88426,-35.5165 12.26326,-27.7915 13.8044,-32.919 13.6987,-45.5774 -0.0717,-8.5894 -0.29367,-9.6838 -7.54545,-37.2058 -3.34179,-12.6828 -10.09827,-43.25479 -12.86983,-58.2341 -4.43337,-23.96079 -7.10139,-44.79037 -8.53231,-66.61315 -0.95492,-14.56343 -1.61811,-18.95537 -4.47057,-29.60584 -1.20503,-4.49931 -2.56377,-11.33592 -3.01944,-15.19248 -2.00837,-16.99768 4.95378,-31.95985 19.74353,-42.43026 10.85682,-7.68607 21.94186,-11.86826 35.83338,-13.51924 l 7.96088,-0.94613 -6.20357,-3.31473 c -3.82039,-2.04133 -7.56188,-4.7789 -9.73933,-7.12608 -3.08249,-3.32278 -3.83196,-3.76048 -5.84636,-3.41448 -3.34659,0.57483 -5.80755,-1.96993 -12.35749,-12.77833 -6.76484,-11.16298 -7.57068,-14.45465 -6.98117,-28.51652 0.74399,-17.74689 3.37837,-22.19574 30.72661,-51.88988 14.71037,-15.97221 18.74136,-20.78068 18.63926,-22.23428 -0.18761,-2.671 -3.36202,-10.67163 -6.23325,-15.70997 -3.34584,-5.87117 -9.44283,-12.88185 -15.29143,-17.583 -6.04568,-4.85955 -18.035,-11.11556 -24.3488,-12.70518 -20.4445,-5.14726 -23.63951,-6.15865 -30.38145,-9.61728 -3.95757,-2.03024 -7.04803,-3.28436 -6.86769,-2.78695 3.59328,9.91151 5.1161,20.55772 4.65819,32.56607 -0.62637,16.42656 -3.33343,24.04759 -15.32259,43.13697 -9.01586,14.35522 -10.54783,20.6457 -6.99495,28.72221 3.11937,7.09106 10.35059,11.10119 21.26768,11.79415 5.41965,0.34401 6.43744,0.61445 6.24721,1.65998 -0.34216,1.8806 -8.14783,3.12675 -19.85014,3.169 -12.33087,0.0445 -18.683,-1.24021 -27.06928,-5.47483 -5.07012,-2.56013 -7.35093,-4.34985 -12.27259,-9.63013 -5.12023,-5.49332 -6.60598,-7.72177 -9.71097,-14.56534 -5.57796,-12.29412 -7.55953,-23.30589 -7.13204,-39.63333 0.26225,-10.01637 1.75791,-20.16155 4.39083,-29.78341 0.96892,-3.54086 1.67068,-6.53424 1.55946,-6.65197 -0.11123,-0.11773 -1.0665,1.16832 -2.12284,2.85789 -1.05633,1.68956 -6.43184,8.79625 -11.94557,15.79263 -17.9497,22.7764 -22.3714,31.45158 -22.96356,45.0534 -0.30411,6.98521 -0.20263,7.64212 1.80438,11.68082 1.40339,2.82403 3.77559,5.73855 6.97542,8.57011 10.58277,9.3648 44.20701,29.26626 59.05342,34.95245 3.55732,1.36246 9.35622,3.0048 12.88643,3.64963 5.58211,1.01965 7.06068,1.02997 11.3458,0.0792 2.70997,-0.60127 5.08577,-0.8217 5.27954,-0.48984 0.19377,0.33186 -0.16673,2.13075 -0.80112,3.99752 -0.63439,1.86678 -2.43215,8.66027 -3.99504,15.09665 -4.83136,19.89673 -6.29489,38.07622 -4.10693,51.01514 0.54345,3.21379 2.97266,12.15398 5.39826,19.86708 5.41386,17.21552 6.38993,22.78936 6.34414,36.22823 -0.0597,17.52082 -2.49538,27.29371 -11.59171,46.51039 -2.67692,5.65526 -5.73571,13.48733 -6.79731,17.40465 -1.736,6.40585 -1.89266,8.03635 -1.55724,16.20726 0.28109,6.84767 0.85715,10.71552 2.33938,15.70714 2.62846,8.85176 3.22736,18.84303 1.59341,26.58246 -1.48013,7.0109 -3.96272,12.327 -10.61291,22.7258 -9.68478,15.144 -12.83132,23.9036 -12.79286,35.6138 0.0284,8.6459 1.69268,15.226 5.51754,21.8148 1.36813,2.3568 3.82999,6.5854 5.47078,9.3968 6.55614,11.2338 7.35572,18.7756 3.87716,36.5702 -3.15854,16.1574 -2.96289,22.3303 0.94637,29.8582 1.9688,3.7913 2.40832,5.2013 1.62131,5.2013 -1.57717,0 -4.48867,-5.1499 -5.93065,-10.4903 -1.52341,-5.6421 -1.11238,-14.0541 1.14338,-23.4006 0.82736,-3.428 1.71243,-9.6544 1.96682,-13.8362 0.62666,-10.3013 -0.75637,-15.6059 -6.4703,-24.8165 -7.99822,-12.8929 -10.1896,-19.4088 -10.1896,-30.2977 0,-11.0018 4.09573,-22.9595 11.96294,-34.9265 13.14411,-19.99378 15.14095,-29.69662 10.04851,-48.82691 -2.21448,-8.31893 -2.49088,-10.42242 -2.50818,-19.08797 -0.0243,-12.16497 1.0567,-16.13916 9.53631,-35.05956 6.96875,-15.5493 7.97582,-18.55803 9.64875,-28.82674 0.88587,-5.43758 1.10308,-10.08889 0.81863,-17.52977 -0.464,-12.1377 -1.49954,-17.42982 -6.35104,-32.45692 -5.47721,-16.96516 -6.23666,-21.09681 -6.20671,-33.76671 0.0376,-15.92243 1.91163,-28.26257 6.93458,-45.66378 1.18877,-4.1183 2.16148,-7.62426 2.16158,-7.79101 1.1e-4,-0.16676 -3.72619,-0.30352 -8.28068,-0.30392 -7.65071,-6.7e-4 -8.88395,-0.22169 -16.20635,-2.90455 -9.65736,-3.53837 -27.07814,-12.45177 -39.76755,-20.3472 l -9.41791,-5.85989 0.35937,4.81742 c 0.19765,2.64958 0.57062,13.23171 0.82883,23.51584 0.87425,34.82057 -1.53365,53.42383 -11.739,90.69439 -4.44152,16.22077 -5.19247,21.18676 -5.19456,34.35138 -10e-4,10.95105 0.19406,12.80188 2.10164,19.86708 2.99937,11.10889 3.02743,11.29697 1.68581,11.29697 -3.3115,0 -29.60823,-17.59117 -47.22862,-31.59356 -36.68441,-29.1519 -66.01592,-72.34832 -80.51818,-118.5788 -2.34132,-7.46367 -8.50717,-33.13918 -9.35473,-38.95448 -0.26543,-1.82115 -0.70253,-3.31118 -0.97133,-3.31118 -0.2688,0 -1.96541,1.60141 -3.77024,3.55869 -5.24996,5.69341 -15.20992,11.71926 -23.89119,14.45435 -15.28753,4.81645 -35.1768,3.83475 -43.50489,-2.14733 -1.43005,-1.0272 -2.95304,-1.63674 -3.38442,-1.35454 -1.1424,0.74733 -0.39501,-2.84867 2.22903,-10.72478 3.19141,-9.57905 4.068,-15.26108 4.09987,-26.5751 0.0154,-5.46344 0.24689,-9.93354 0.51446,-9.93354 1.852,0 4.84675,9.30265 5.51786,17.14023 0.39676,4.63343 0.0598,7.24817 -2.20891,17.14022 -0.24569,1.07127 0.21045,0.5079 1.01366,-1.25193 4.95663,-10.85995 5.05334,-24.66141 0.28331,-40.42998 -0.64812,-2.14253 -2.82545,-8.44274 -4.83851,-14.00048 -5.46184,-15.0793 -6.51086,-20.15145 -6.53068,-31.57693 -0.0136,-7.8308 0.41478,-11.95201 2.18654,-21.03573 1.2119,-6.21334 2.60278,-14.97822 3.09086,-19.47753 1.0867,-10.01755 0.47261,-36.34322 -1.13586,-48.69382 -5.76725,-44.28383 -6.0681,-73.73945 -1.07026,-104.7861 5.69649,-35.38665 15.74092,-56.92066 36.19998,-77.60829 12.75616,-12.89866 26.31667,-22.68762 44.34096,-32.00849 28.05856,-14.5099 51.40517,-16.50726 69.43356,-5.94025 5.69732,3.33938 13.72998,11.23611 16.6164,16.33521 l 2.13912,3.77893 h 10.3739 c 12.12488,0 17.05873,1.27763 28.0257,7.25732 16.33376,8.90592 28.23321,22.05587 36.43855,40.26785 2.78132,6.17322 6.85064,19.10213 7.7857,24.73646 0.26667,1.60689 0.69642,2.92004 0.95499,2.9181 0.25857,-0.002 1.86751,-2.89435 3.57542,-6.42758 3.63501,-7.51995 7.90551,-13.33778 18.87106,-25.70862 9.71173,-10.95635 12.07961,-14.31261 11.11313,-15.75182 -8.23488,-12.26277 -9.82924,-16.77545 -8.60972,-24.36883 0.98802,-6.15184 2.87014,-10.24763 7.46439,-16.24361 6.46521,-8.43778 17.42333,-15.78828 29.8849,-20.04621 18.44383,-6.30199 48.01622,-7.32445 72.61164,-2.51054 34.69068,6.78978 62.13934,22.1391 87.84361,49.1222 19.25663,20.21467 30.49584,37.69588 51.34309,79.85786 34.18529,69.13714 52.86766,98.8411 78.6478,125.04573 17.90533,18.20017 34.12972,28.65412 64.62019,41.63708 24.61348,10.4805 32.32349,14.70366 42.03809,23.02638 17.53854,15.02576 26.36662,31.48236 35.66321,66.48083 2.18338,8.21942 2.14841,7.92526 0.94157,7.92526 -0.54918,0 -1.6632,-2.81038 -2.70245,-6.81713 -9.34818,-36.0434 -18.89988,-53.20122 -37.95066,-68.17136 -6.63316,-5.21234 -21.79077,-13.32226 -36.06695,-19.29724 -21.6487,-9.0606 -31.48424,-14.17195 -44.16362,-22.95112 -10.25698,-7.1019 -16.36945,-12.39809 -26.37373,-22.85165 -24.26573,-25.3555 -42.82874,-54.92611 -73.75861,-117.49648 -14.67216,-29.68142 -17.28579,-34.60686 -24.96308,-47.04356 -27.18015,-44.02993 -62.43254,-72.68909 -102.4593,-83.29639 -17.68462,-4.68651 -26.25321,-5.80308 -44.7875,-5.83622 -18.0239,-0.0322 -23.87918,0.61219 -35.69891,3.929 -26.77052,7.51223 -44.79462,28.2118 -39.4357,45.28944 1.22376,3.89984 6.57425,12.64563 7.73633,12.64563 0.33343,0 0.99038,-0.98162 1.45989,-2.18138 1.08646,-2.77633 6.20311,-8.37959 9.92537,-10.86931 7.36493,-4.92621 23.5287,-8.76414 36.91091,-8.76414 21.13028,0 46.37731,6.52047 65.08655,16.80969 10.43576,5.73919 18.25407,12.09231 29.71241,24.14415 8.10319,8.52291 10.63508,11.84009 17.74889,23.25386 12.13293,19.46674 15.21601,24.91343 23.63244,41.75006 15.58946,31.18587 24.69895,56.32902 47.84516,132.05764 13.22951,43.28368 21.87737,66.76796 30.91309,83.94809 12.43242,23.6385 25.08103,39.52512 42.31168,53.14339 12.61498,9.97026 24.9917,16.78383 55.98239,30.81916 22.36592,10.12929 34.90139,16.78464 45.76601,24.29818 28.14046,19.46088 46.20926,46.15593 51.99896,76.82384 4.1901,22.19468 3.60463,40.31953 -2.16902,67.14951 -3.15336,14.65349 -3.9299,21.78655 -3.43004,31.5067 0.48587,9.44714 2.66785,19.67869 6.32003,29.63498 1.25388,3.41823 2.26795,7.27478 2.25337,8.57011 -0.0221,1.96762 -0.39482,1.45786 -2.26596,-3.09864 -2.81933,-6.86559 -5.5373,-15.5514 -7.07,-22.59393 -1.80784,-8.3067 -1.61433,-25.99393 0.38776,-35.4491 4.31765,-20.39103 5.30176,-26.16043 6.13999,-35.99728 1.46292,-17.16835 -0.50553,-36.52559 -5.29205,-52.04118 -2.44924,-7.93904 -7.4348,-18.54619 -12.28978,-26.1471 -16.535,-25.88741 -37.78483,-41.56856 -84.39237,-62.27681 C 752.5526,735.55409 736.4718,727.37154 727.96716,721.90837 697.86894,702.57406 677.13914,673.69794 659.75755,626.89401 654.92202,613.8732 648.4945,593.946 635.00458,550.15255 630.91275,536.86888 625.8439,520.85649 623.74046,514.56947 l -3.82443,-11.43095 -0.0261,11.8205 c -0.0308,13.88795 -0.96336,20.21153 -4.82831,32.73794 -7.14425,23.15473 -17.82016,36.78526 -42.04165,53.67689 -29.29756,20.4316 -41.89218,27.12588 -57.40935,30.51415 -7.13777,1.55856 -16.67006,1.58873 -22.17812,0.0702 -5.92489,-1.63348 -6.00762,-1.56022 -2.31103,2.04644 6.68908,6.52632 15.01481,20.72564 16.25487,27.7223 0.24994,1.41018 0.67309,2.56396 0.94032,2.56396 0.26724,0 2.70444,-1.71198 5.416,-3.80441 2.71156,-2.09243 6.28838,-4.55378 7.94848,-5.46967 1.6601,-0.91589 6.88707,-4.76076 11.61548,-8.54417 20.16658,-16.13614 32.79144,-21.24771 46.45417,-18.80843 16.70198,2.98188 28.63507,16.20004 62.95844,69.73848 4.39543,6.85609 9.75981,15.14847 11.92085,18.4275 2.16104,3.27904 3.92917,6.33087 3.92917,6.78183 0,1.09296 -3.04317,1.5313 -13.61711,1.96146 -5.92215,0.24092 -10.65183,0.9089 -14.35317,2.02712 -7.3611,2.22388 -19.28351,8.30713 -26.27674,13.40734 -11.36243,8.28672 -26.20607,25.17334 -31.45429,35.78346 l -2.11531,4.27646 3.71524,10.86719 c 4.8939,14.31477 7.99418,24.67246 13.10209,43.77243 l 4.21604,15.76499 4.38555,-8.36353 c 13.25963,-25.28697 30.03858,-47.09095 47.07225,-61.16957 8.21189,-6.78727 19.73908,-14.47338 26.62603,-17.75373 l 5.55411,-2.6455 -0.3883,-3.13154 c -0.57032,-4.59952 0.87578,-6.26441 5.37289,-6.18578 4.4399,0.0777 8.27768,2.13363 9.29197,4.97792 0.66764,1.87222 1.28673,2.24055 4.42786,2.63432 2.00844,0.25178 3.81218,0.62764 4.00832,0.83524 0.86447,0.91503 -0.78774,4.50849 -3.22477,7.01371 l -2.65495,2.72923 1.95918,3.53858 c 3.11957,5.63443 13.32056,18.80646 21.35774,27.57821 9.04344,9.87004 18.83169,18.99861 35.73894,33.33049 18.47568,15.66145 23.59534,20.33379 33.19003,30.29008 24.36904,25.28744 32.75902,44.55033 30.29005,69.54397 -2.57562,26.07356 -22.82103,84.11982 -37.55717,107.68132 -6.09531,9.7456 -15.3923,19.295 -22.24261,22.8465 -7.46457,3.8699 -14.7308,5.0479 -22.93642,3.7182 -24.50493,-3.9706 -56.61569,-27.9867 -80.83242,-60.4556 -6.57189,-8.81136 -15.39643,-22.94511 -21.28769,-34.09522 -15.47257,-29.28415 -22.00987,-47.41033 -32.09928,-89.0028 -2.28681,-9.42712 -4.43671,-18.01671 -4.77755,-19.08797 -0.55356,-1.73989 -0.6259,-1.77191 -0.6778,-0.29988 -0.0696,1.973 -2.728,5.75358 -4.04579,5.75358 -1.80251,0 -3.37293,-2.81621 -3.37293,-6.04862 0,-4.16531 1.06894,-7.0257 3.32864,-8.90708 1.00308,-0.83519 1.82378,-2.09399 1.82378,-2.79736 0,-0.70337 -2.6304,-10.93861 -5.84534,-22.74488 -7.03897,-25.84933 -13.3075,-44.81367 -14.8129,-44.81367 -0.7387,0 -1.17956,-1.28632 -1.46863,-4.28505 -0.91144,-9.45491 -15.90994,-45.53452 -24.89737,-59.89181 l -2.62042,-4.18607 -7.01228,0.37016 c -3.85676,0.20358 -8.83404,0.94518 -11.06062,1.64799 -2.22658,0.7028 -6.74507,2.00988 -10.0411,2.90462 l -5.99277,1.62678 -0.29627,5.19636 c -0.16295,2.85799 -0.79595,6.24813 -1.40668,7.53365 -1.03657,2.18187 -0.99853,2.51986 0.57199,5.08236 0.92532,1.50978 1.99549,4.48984 2.37814,6.62236 1.02916,5.73538 1.82448,7.518 5.46485,12.24874 4.87607,6.33654 5.84672,8.77332 6.23161,15.64415 0.30118,5.37638 0.1517,6.36799 -1.26587,8.39747 l -1.60739,2.30124 3.40192,11.08004 c 6.69543,21.80695 20.26639,57.46161 29.7833,78.24873 9.35798,20.44003 16.04318,31.80143 34.97254,59.43529 19.27521,28.13872 24.12772,35.89459 32.17169,51.42067 15.01126,28.97402 21.29302,47.05632 28.55436,82.19522 2.90372,14.0515 6.65041,37.1147 6.16459,37.9467 -0.77225,1.3226 -1.67659,-0.3113 -2.14703,-3.8792 -1.1627,-8.8179 -5.78729,-33.5466 -8.48378,-45.3645 -5.23304,-22.935 -10.80174,-39.0843 -20.41766,-59.2117 -9.79166,-20.49519 -17.89403,-33.86667 -38.71163,-63.88629 -21.74288,-31.35391 -32.20113,-50.9977 -45.83415,-86.09068 -8.25941,-21.26069 -7.42423,-19.61756 -11.23166,-22.09728 -4.75595,-3.09748 -12.71313,-6.0371 -18.12134,-6.69459 -9.67026,-1.1755 -25.13436,3.04333 -35.92044,9.79969 -10.71912,6.71437 -22.35339,18.25009 -28.76596,28.52223 l -3.29171,5.27287 1.73705,7.01612 c 0.98351,3.97248 2.09237,11.74596 2.55611,17.91933 2.18419,29.07558 3.03049,36.53579 6.76088,59.59703 3.71819,22.98597 10.7362,55.17287 17.92181,82.19517 7.66167,28.8126 6.78494,37.6194 -6.74111,67.7142 -10.99708,24.468 -15.68059,41.7957 -15.68059,58.0137 0,4.8992 -0.28765,7.8879 -0.75916,7.8879 -0.41754,0 -0.96229,-0.5602 -1.21055,-1.245 z m 304.54081,-97.372 c 9.67632,-2.9757 20.26016,-12.4903 28.0986,-25.26 13.68652,-22.2969 32.64794,-75.17761 36.66631,-102.2573 1.39587,-9.40663 0.56177,-22.93074 -1.88593,-30.57948 -6.73038,-21.03129 -21.5168,-38.53123 -60.08217,-71.10828 -7.13793,-6.02954 -15.41861,-13.17297 -18.40151,-15.87434 -14.63136,-13.25018 -29.87536,-30.74404 -38.45558,-44.13128 -4.04126,-6.30537 -4.77259,-7.95569 -3.5255,-7.95569 0.79898,0 6.01115,-5.51696 6.01115,-6.36267 0,-1.40186 -6.15434,-0.65648 -7.75965,0.93981 -2.34564,2.33247 -6.48746,2.82207 -9.47365,1.11986 l -2.45616,-1.40008 -6.90064,3.57241 c -29.42881,15.23509 -54.0133,42.41083 -73.76607,81.54129 l -3.2681,6.4741 5.8382,24.25513 c 10.22991,42.50074 14.5019,55.6455 25.88731,79.65405 17.38682,36.66396 39.16812,65.90117 63.61936,85.39687 23.43027,18.6816 44.91473,26.5697 59.85403,21.9756 z M 331.70009,893.37501 c -5.24444,-17.83573 -4.66427,-32.86467 2.25681,-58.46098 10.52047,-38.90796 12.33136,-53.57751 11.445,-92.71304 -0.27659,-12.21241 -0.72913,-23.31046 -1.00565,-24.66232 -0.39399,-1.92628 -1.77241,-3.42066 -6.37258,-6.90876 -6.87455,-5.21265 -7.74727,-5.65515 -7.74727,-3.9282 0,2.15937 -5.91195,20.66456 -8.58622,26.876 -3.74399,8.69603 -11.36682,20.31628 -16.72189,25.49085 -8.83109,8.53341 -17.39918,12.72824 -30.22816,14.79931 -16.77235,2.70768 -32.708,-1.12644 -52.26307,-12.57446 -11.17126,-6.53993 -12.10347,-5.96108 -8.13345,5.05047 11.50409,31.90861 38.38048,70.57096 65.68494,94.48948 13.85234,12.1345 49.00799,37.18789 52.18315,37.18789 0.59153,0 0.43406,-1.43011 -0.51161,-4.64624 z m 258.42373,-26.95807 c 1.10881,-3.08696 0.91389,-8.12984 -0.31424,-8.12984 -1.17665,0 -2.64822,3.88888 -2.64822,6.99835 0,3.61456 1.82074,4.31007 2.96246,1.13149 z M 443.13293,852.71442 c 21.37308,-30.17407 57.96666,-43.57469 80.52325,-29.48768 1.42875,0.89222 2.68592,1.52041 2.79371,1.39583 0.10779,-0.1245 -1.23125,-4.25825 -2.97563,-9.18607 -3.77652,-10.66854 -5.60873,-12.73183 -14.62895,-16.47365 -12.58509,-5.22066 -29.28803,-3.25588 -45.71007,5.37692 -19.26042,10.12488 -28.51282,24.6379 -27.37996,42.94735 0.44191,7.14226 1.75942,13.18933 2.62914,12.06727 0.28893,-0.37272 2.42576,-3.36073 4.74851,-6.63997 z m 75.95247,-51.10696 c -0.28376,-0.74989 -1.5294,-4.86939 -2.76809,-9.15445 -2.72401,-9.42328 -4.62562,-12.5015 -13.08654,-21.18386 -6.09915,-6.25876 -6.62754,-7.05714 -8.09652,-12.23347 -1.8946,-6.6761 -4.11004,-10.85731 -7.67477,-14.48456 -2.5447,-2.58935 -2.7556,-2.66094 -4.59031,-1.55821 -3.49719,2.10193 -3.60476,3.21038 -0.76007,7.83176 1.43259,2.32732 3.35171,6.45101 4.26472,9.16377 1.69526,5.03701 2.48609,5.96504 10.25215,12.03089 4.72107,3.68749 6.98578,8.32936 6.92842,14.20087 -0.0251,2.57104 -0.42693,5.42445 -0.89291,6.34092 -0.92925,1.8276 -1.34356,1.54915 6.84554,4.60073 2.02417,0.75427 5.00521,2.35427 6.62454,3.55549 3.51395,2.60671 3.61492,2.6371 2.95384,0.89012 z m -17.75379,-10.77637 c 0.81001,-2.23429 0.46595,-7.33924 -0.69244,-10.27376 -1.45378,-3.68285 -3.46294,-5.95374 -8.06153,-9.11173 -5.04826,-3.46679 -5.83497,-4.56999 -8.4726,-11.88117 -2.67609,-7.41774 -7.48893,-13.91217 -8.82597,-11.90973 -1.08983,1.63221 -0.51121,4.99661 1.8759,10.90741 1.66154,4.11423 2.07282,6.37393 2.19253,12.04668 0.10623,5.03374 0.43229,7.14231 1.1683,7.5551 0.56151,0.31492 2.79774,1.47325 4.96939,2.57405 2.17164,1.1008 6.11146,4.09937 8.75515,6.66349 5.00447,4.85384 6.34067,5.50008 7.09127,3.42966 z m -9.85806,-3.75056 c 0,-0.60282 -7.42286,-5.33918 -7.77817,-4.9631 -0.19887,0.21051 1.22144,1.47857 3.15624,2.81792 3.27667,2.26823 4.62193,2.89261 4.62193,2.14518 z m 25.73621,-5.09416 c 2.24672,-4.44352 -0.12057,-13.01335 -5.5212,-19.98731 -3.78608,-4.88903 -4.95228,-7.60638 -6.515,-15.18042 -0.22749,-1.10259 -1.25946,-3.32401 -2.29326,-4.9365 l -1.87966,-2.93178 1.52754,-2.61613 c 1.22949,-2.1057 1.48488,-3.64032 1.30895,-7.86535 -0.20891,-5.01673 -0.31012,-5.27501 -2.28525,-5.83152 -2.53728,-0.7149 -8.64855,1.07785 -10.22651,2.99997 -0.61912,0.75415 -1.32105,2.97078 -1.55985,4.92585 -0.23878,1.95506 -1.07623,5.14014 -1.86098,7.07796 l -1.42683,3.5233 2.47418,2.08964 c 3.28206,2.77195 5.71261,7.32765 7.99169,14.97916 1.8107,6.07904 2.08541,6.49663 8.0625,12.2558 3.40337,3.27927 7.13327,7.54614 8.28868,9.48192 2.34985,3.93695 2.82084,4.17941 3.915,2.01541 z m -40.60462,-5.66075 c 2.23077,-2.36122 0.51007,-10.09685 -3.94553,-17.73759 -3.84808,-6.59895 -3.99434,-9.52314 -0.74036,-14.80257 2.47615,-4.0174 2.62492,-4.62596 2.62492,-10.73709 0,-5.06402 0.24308,-6.57704 1.11346,-6.93057 0.61241,-0.24874 1.5451,-0.0731 2.07265,0.39034 0.52754,0.46342 2.82894,1.0752 5.1142,1.35949 3.93648,0.48971 4.19923,0.41417 4.99572,-1.43617 0.4624,-1.07419 2.0963,-2.7 3.63089,-3.61292 3.20948,-1.90931 10.92664,-3.01496 12.89705,-1.84778 1.32426,0.78443 1.71747,0.69943 16.91584,-3.65673 2.83383,-0.81224 7.63663,-1.71614 10.67287,-2.00868 3.03625,-0.29254 5.66192,-0.67507 5.83483,-0.85008 0.53404,-0.54052 -3.74057,-4.86806 -7.42764,-7.51959 -1.92813,-1.38661 -3.67303,-2.95934 -3.87758,-3.49497 -0.58055,-1.52032 3.31743,-1.18191 5.72302,0.49685 5.37798,3.75307 14.73872,18.48236 22.58415,35.53658 5.14776,11.19008 13.96623,33.5476 13.96623,35.40868 0,2.04007 1.58438,1.30362 2.85154,-1.32546 2.53833,-5.26649 11.44982,-16.74427 18.59889,-23.95491 8.68639,-8.76121 15.95574,-14.09305 26.60183,-19.51164 11.03833,-5.61821 17.71843,-7.42078 29.41806,-7.93821 5.16162,-0.22829 9.38476,-0.55629 9.38476,-0.72891 0,-0.55327 -21.82203,-34.15351 -30.61284,-47.1358 -20.03602,-29.58926 -29.62026,-39.67131 -41.36147,-43.50986 -14.31948,-4.68146 -27.86002,0.17467 -49.88193,17.88947 -4.34672,3.49657 -9.26296,7.08954 -10.92498,7.98438 -1.66202,0.89485 -4.84361,3.10124 -7.07019,4.9031 -2.22658,1.80186 -4.71705,3.64943 -5.53438,4.10572 -0.87591,0.48899 -1.85941,2.3072 -2.39541,4.4284 -1.40949,5.57809 -10.06467,13.6793 -14.6147,13.6793 -1.29147,0 -22.05688,22.25296 -26.45601,28.35121 -3.323,4.60649 -6.56249,11.64409 -7.75011,16.83666 -1.23808,5.41321 -1.2399,20.31477 -0.003,24.93124 1.03985,3.88118 8.59166,16.88472 12.10337,20.84095 2.36651,2.66607 4.02606,3.1487 5.49188,1.59716 z m -195.64476,-5.6747 c 19.75848,-5.09622 34.82026,-22.97996 44.07195,-52.3292 4.27421,-13.55917 4.32148,-14.10448 1.61409,-18.62323 -2.8497,-4.75627 -3.7213,-8.03388 -3.72651,-14.01342 -0.005,-5.98916 1.57062,-12.46674 4.79134,-19.6949 l 2.54076,-5.70218 -4.58817,4.40825 c -13.9686,13.4208 -29.18961,20.17723 -47.6477,21.15028 -24.47406,1.29018 -52.75973,-8.83612 -73.37518,-26.2684 -3.96038,-3.34887 -7.25159,-6.02501 -7.31381,-5.94698 -0.0622,0.078 1.41001,4.87491 3.27163,10.65974 3.29891,10.2511 3.3855,10.76486 3.41403,20.25663 0.0308,10.23278 -0.10968,10.81887 -4.4184,18.43557 -1.55073,2.74129 -1.58606,2.42223 2.35861,21.29858 1.9991,9.56625 6.32924,25.93092 7.71039,29.13947 0.67691,1.57254 1.21694,1.86247 2.8321,1.52055 1.52,-0.32177 4.34709,0.88635 11.86038,5.0684 13.29518,7.40037 19.01718,9.59306 31.57844,12.10094 3.62881,0.72451 20.33516,-0.2502 25.02605,-1.4601 z m 405.24439,-9.41026 c 1.33742,-1.13913 1.24051,-1.1844 -1.51546,-0.70794 -4.29405,0.74237 -5.79856,1.87167 -2.53287,1.90121 1.44075,0.013 3.26249,-0.52394 4.04833,-1.19327 z m -2.37553,-2.65129 c 4.7738,-1.04899 5.05321,-2.02481 1.18427,-4.13592 -3.23319,-1.7642 -7.57372,-1.50712 -7.92787,0.46955 -0.40731,2.27334 0.57982,5.37673 1.58089,4.97012 0.49949,-0.20288 2.8227,-0.78956 5.16271,-1.30375 z m -210.03947,-3.17992 c -0.4434,-0.87695 -1.08122,-3.06817 -1.41736,-4.86938 -0.58018,-3.1088 -0.61528,-3.14453 -0.69183,-0.70415 -0.0735,2.34253 1.63667,7.16799 2.54036,7.16799 0.20626,0 0.0122,-0.7175 -0.43117,-1.59446 z m 2.26175,-12.1379 c 1.10541,-3.07745 0.76091,-4.03584 -0.52486,-1.46011 -0.6417,1.28552 -1.70493,3.00186 -2.36272,3.8141 -1.14125,1.4092 -1.11858,1.43378 0.49539,0.53695 0.93025,-0.51691 2.00674,-1.81783 2.39219,-2.89094 z m 6.78532,-3.41036 c 2.11509,-1.97063 3.73875,-4.33703 4.41017,-6.42758 l 1.06265,-3.30869 -4.86939,-0.17446 -4.86938,-0.17447 0.0108,6.60158 c 0.006,3.63087 0.21259,6.6018 0.45922,6.60205 0.24663,2.6e-4 1.9548,-1.40303 3.79593,-3.11843 z M 157.30533,727.05173 c 12.61786,-2.01337 24.8348,-7.71261 32.56692,-15.19256 3.6424,-3.52361 5.13949,-5.55007 9.81666,-13.28784 4.78059,-7.90889 3.66515,-21.42289 -3.35643,-40.6643 -2.33125,-6.38841 -4.36684,-10.25033 -8.74437,-16.58982 -7.26041,-10.51446 -11.98833,-19.9934 -18.47732,-37.045 -5.05409,-13.28098 -5.28151,-13.70237 -9.86286,-18.27502 -5.18027,-5.17044 -7.42684,-9.5036 -10.00403,-19.29569 -2.96643,-11.27095 -4.32409,-13.70239 -9.08818,-16.27604 -3.46199,-1.87023 -8.399,-6.51662 -10.22396,-9.62211 l -1.37354,-2.33731 0.34872,3.11641 c 0.19179,1.71402 0.57602,9.60242 0.85384,17.52977 0.58958,16.82324 -0.1362,25.49631 -3.55285,42.45635 -1.93196,9.59015 -2.35601,13.44135 -2.3596,21.42995 -0.005,11.36788 0.56278,13.9881 6.90704,31.86913 5.64398,15.9073 7.51036,23.61198 7.94457,32.79626 0.57708,12.20634 -3.17916,24.42562 -9.73799,31.67829 l -2.94626,3.25794 2.96534,1.52492 c 2.65554,1.3656 7.68026,2.7544 12.864,3.55553 4.0562,0.62686 8.79988,0.43391 15.4603,-0.62886 z m 262.03434,-2.73978 c 2.38193,-0.11928 2.21541,-0.25748 -2.20818,-1.83263 -2.63142,-0.93698 -5.93884,-2.42145 -7.34982,-3.29881 -3.84616,-2.39158 -7.12961,-7.44299 -8.11987,-12.49197 -1.58635,-8.08825 0.26301,-13.63378 9.5922,-28.76339 3.96337,-6.42759 8.08884,-13.79009 9.16772,-16.36113 5.39035,-12.84553 6.63852,-30.67294 3.13695,-44.80414 -2.77574,-11.20192 -4.31002,-14.06993 -10.23974,-19.14108 -9.62833,-8.23423 -18.36035,-22.10774 -23.28318,-36.99253 -2.30741,-6.97672 -5.29091,-20.34368 -5.29091,-23.70483 0,-1.07875 -0.33122,-1.96135 -0.73606,-1.96135 -0.40483,0 -0.73606,1.5915 -0.73606,3.53666 0,11.18385 -4.85931,42.30397 -8.33591,53.38504 -1.40346,4.47328 -4.51624,13.56747 -6.91727,20.20931 -7.8855,21.81313 -10.2141,34.52842 -9.54839,52.13912 0.52686,13.93752 2.25201,21.94084 6.85655,31.80877 5.96195,12.77696 15.27926,21.59617 27.30562,25.84583 5.0185,1.77335 14.68787,3.07819 20.44984,2.75962 2.02416,-0.11191 4.83959,-0.26154 6.25651,-0.33249 z M 128.96076,712.06727 c 2.62406,-5.76515 3.55878,-11.33051 3.12866,-18.62805 -0.51108,-8.6711 -1.96814,-11.38178 -1.99897,-3.71885 -0.0276,6.858 -1.72979,16.63785 -4.11298,23.63095 -0.98884,2.90158 -1.79052,5.58379 -1.78151,5.96045 0.0294,1.2274 2.88486,-3.1142 4.7648,-7.2445 z m 163.98546,-30.51189 c 7.02929,-2.00254 16.43562,-6.5971 22.69644,-11.08618 5.808,-4.16439 23.0436,-22.23386 32.64651,-34.22596 9.00269,-11.24254 17.40432,-24.51623 20.60996,-32.56156 6.81112,-17.09415 11.11078,-41.27239 12.91248,-72.61065 0.45557,-7.92381 0.64772,-16.3381 0.42701,-18.69843 -0.2207,-2.36033 -0.59818,-7.97275 -0.83885,-12.47206 -1.15454,-21.58526 -3.71877,-38.1495 -7.83275,-50.59742 -2.82343,-8.54304 -12.9941,-29.56788 -18.66004,-38.57411 -5.56239,-8.84162 -15.26689,-19.67601 -21.58362,-24.09656 -2.68791,-1.88106 -8.36499,-5.25615 -12.61574,-7.50022 -4.25075,-2.24408 -8.65858,-4.77631 -9.79518,-5.6272 -2.72788,-2.04216 -3.12853,-1.40174 -1.40646,2.24815 0.77776,1.64842 2.82076,7.02898 4.54002,11.9568 3.85772,11.05721 8.48541,20.00431 13.43716,25.97925 2.07577,2.50468 8.43903,8.50288 14.14057,13.32933 18.66125,15.79704 26.51155,26.51885 31.69731,43.29162 0.72604,2.34826 2.44508,7.17017 3.82009,10.71536 3.07683,7.93294 3.80998,15.66574 2.47069,26.05909 -1.80852,14.03462 -5.88355,23.15976 -14.37257,32.1842 -12.88922,13.70216 -29.95214,16.65478 -46.479,8.04287 -13.04298,-6.7965 -25.09767,-23.12843 -27.51868,-37.28285 -0.47641,-2.78528 -1.01673,-5.90872 -1.20072,-6.94096 -0.18399,-1.03225 -1.41456,-3.02 -2.73458,-4.41722 -5.90361,-6.24882 -19.66404,-6.4876 -26.86558,-0.4662 l -1.75015,1.46335 1.62432,4.59522 c 2.30139,6.5107 2.69132,13.4749 1.19276,21.30305 -1.80057,9.40581 -4.37407,15.5307 -10.08697,24.0068 -3.85081,5.71337 -5.0551,8.12647 -5.0551,10.12916 0,6.13035 2.73521,7.7675 13.67042,8.18237 6.80757,0.25827 8.77843,0.64253 12.82775,2.50102 3.21111,1.47378 6.52225,2.31961 10.0693,2.57219 4.74775,0.33808 5.76692,0.13757 10.02734,-1.97269 6.56223,-3.25041 12.45764,-7.35755 15.28988,-10.65198 2.18961,-2.54691 4.36072,-3.63558 4.36072,-2.1866 0,1.38891 -6.46808,7.47035 -11.41955,10.73693 -6.58394,4.34354 -12.43077,6.59006 -17.15142,6.59006 -3.48335,0 -5.36629,-0.50245 -14.41879,-3.84755 -3.12837,-1.156 -6.17787,-1.60616 -10.88052,-1.60616 -10.01463,0 -14.58331,-2.96753 -14.58331,-9.4724 v -3.02945 l -3.86431,3.25724 c -4.70945,3.9696 -12.80951,8.0528 -19.07747,9.61685 -6.10574,1.52357 -16.54515,1.50052 -22.21967,-0.0491 -15.22602,-4.15789 -27.97487,-17.77751 -32.65682,-34.88737 -2.17434,-7.94599 -2.85473,-17.42295 -1.73814,-24.20985 0.47909,-2.91203 0.72367,-5.45064 0.5435,-5.64134 -0.18017,-0.1907 -2.92924,0.22437 -6.10905,0.92238 -3.1798,0.69801 -9.87544,1.47607 -14.87921,1.72901 -8.16621,0.41281 -9.31131,0.65011 -11.18346,2.31753 -3.27504,2.91691 -5.32349,9.64147 -4.9368,16.20634 0.56078,9.52037 4.02184,15.3942 12.4336,21.10129 5.56545,3.77597 7.8526,7.21907 9.78957,14.73736 3.52453,13.68034 5.10739,16.63319 13.0451,24.33583 1.96964,1.91131 3.36187,4.64343 5.75667,11.29697 12.38458,34.40845 23.74068,51.09557 44.55,65.46365 14.25458,9.84226 29.41328,15.9981 48.21194,19.57852 1.01208,0.19276 7.13978,0.24787 13.61711,0.12245 9.12547,-0.17668 13.06687,-0.59549 17.50629,-1.86022 z m -24.86689,-55.9553 c -6.99755,-1.58478 -17.68854,-5.90873 -25.94008,-10.49141 -4.31448,-2.39615 -7.76654,-3.79667 -9.35818,-3.79667 -2.31497,0 -4.01058,-1.1133 -3.12434,-2.05136 0.20239,-0.21422 4.18758,-1.049 8.85598,-1.85506 4.66841,-0.80607 11.32104,-2.52399 14.78363,-3.81759 9.5941,-3.58431 17.31378,-5.00491 24.75641,-4.55573 4.66671,0.28164 7.05979,0.0773 8.88028,-0.75845 4.54171,-2.0849 14.08104,-2.15369 23.10172,-0.16659 4.45316,0.98095 10.50788,1.78031 13.45493,1.77634 2.94705,-0.004 5.26564,0.22957 5.15242,0.51897 -0.53703,1.37269 -12.53782,12.54401 -16.65304,15.50201 -13.54286,9.73457 -28.83155,13.11041 -43.90973,9.69554 z m 24.08825,-2.54696 c 8.949,-2.4226 22.16099,-10.17977 26.69989,-15.67632 l 1.47212,-1.78272 -1.47212,0.5824 c -14.29472,5.65534 -23.64853,7.06711 -46.73981,7.05443 -10.68603,-0.006 -20.69182,-0.41545 -24.55807,-1.00527 -3.58854,-0.54745 -6.64437,-0.86859 -6.79074,-0.71367 -0.47117,0.49872 11.66659,6.57686 17.36366,8.69509 12.3078,4.57615 24.01641,5.55554 34.02507,2.84606 z m 1.15081,-12.5615 c 9.31095,-1.06869 17.99638,-3.2488 23.41217,-5.87664 l 4.34509,-2.10833 -8.46469,-1.83907 c -10.02454,-2.17797 -21.6592,-2.26502 -25.45962,-0.19049 -1.79735,0.98112 -3.87924,1.16741 -9.93681,0.88917 -8.44895,-0.38809 -16.48268,1.16445 -25.26126,4.88181 -2.52952,1.07114 -5.48401,1.94753 -6.56554,1.94753 -4.03828,0 -1.78167,1.45271 3.00199,1.93256 2.73262,0.27411 5.46525,0.61194 6.07249,0.75074 2.80231,0.64049 32.47872,0.34471 38.85618,-0.38728 z m 209.76515,64.36852 c 4.19611,-4.91618 1.3928,-4.28327 -3.73674,0.84366 -2.50853,2.50725 -4.68645,4.86941 -4.83979,5.24922 -0.63412,1.57062 6.14776,-3.24732 8.57653,-6.09288 z m 14.57011,-45.59866 c 14.6478,-3.67953 25.40492,-9.61484 55.8906,-30.838 17.3658,-12.08951 27.36329,-23.26557 34.82646,-38.932 5.9408,-12.47072 8.88527,-24.91695 9.50761,-40.18865 0.83343,-20.45142 -3.19129,-34.4905 -20.16814,-70.35078 -7.98612,-16.8691 -23.97267,-45.07587 -24.90363,-43.94011 -0.1027,0.1253 0.29515,3.03257 0.88411,6.46062 3.16751,18.43648 -3.00103,54.22819 -11.97152,69.46234 -16.20035,27.51232 -49.73777,26.38633 -68.82424,-2.31069 -5.48543,-8.24751 -8.23124,-15.91738 -8.63003,-24.10631 -0.18259,-3.74943 -0.37428,-6.8127 -0.42597,-6.80727 -0.0517,0.005 -1.99144,1.0285 -4.31056,2.27351 -2.82497,1.51656 -5.8615,2.4237 -9.20075,2.74865 -8.25109,0.80292 -9.62946,1.17749 -11.95507,3.24879 -2.78385,2.47943 -2.81988,4.26505 -0.24041,11.91724 1.79869,5.33595 1.98601,6.91031 1.95362,16.4197 -0.029,8.51581 -0.40423,12.18994 -1.97127,19.30223 -2.77276,12.5847 -3.0171,15.2017 -1.6757,17.94738 1.78044,3.64431 7.06469,6.00107 13.32102,5.94114 5.81816,-0.0557 7.43213,-0.76731 15.00424,-6.61517 5.73088,-4.42589 12.86309,-7.74884 16.63172,-7.74884 3.81787,0 3.15052,1.17521 -1.27348,2.24258 -4.33422,1.0457 -9.90817,4.15198 -17.28912,9.63494 -5.97347,4.43742 -11.37685,5.86048 -17.21779,4.53457 -10.10277,-2.29335 -13.32147,-6.83561 -11.67092,-16.4701 0.44415,-2.59256 0.97991,-5.30543 1.19059,-6.0286 0.21067,-0.72317 -0.84276,1.04881 -2.34095,3.93775 -8.77427,16.91912 -24.8654,25.53368 -39.82118,21.3187 -14.88033,-4.19372 -25.32242,-18.67528 -29.27157,-40.59512 l -1.12291,-6.23281 0.34379,5.84326 c 0.18908,3.21379 0.68739,11.80338 1.10734,19.08797 1.59442,27.6572 4.85523,43.75342 12.16404,60.04498 5.58196,12.44237 13.7897,22.6809 24.16271,30.14114 9.19759,6.61488 18.36384,10.13623 38.9664,14.96952 3.49718,0.82043 9.15923,3.12312 14.42734,5.86744 19.3103,10.05933 28.48423,11.69336 43.90362,7.82 z m -52.61762,-60.7478 c -6.24155,-1.7072 -12.00151,-3.0309 -12.7999,-2.94155 -0.7984,0.0893 -1.58766,-0.24121 -1.75393,-0.73458 -0.75738,-2.24749 29.58263,-12.73365 36.85021,-12.73623 2.10119,-7.4e-4 4.01413,-0.82283 7.2706,-3.12458 5.70383,-4.03159 9.83478,-5.22835 21.40902,-6.20231 13.47535,-1.13393 19.35729,-2.95291 27.1108,-8.38398 2.7932,-1.95654 4.29128,-1.84607 4.29128,0.31646 0,2.56085 -5.56925,9.05414 -12.51716,14.59397 -17.97548,14.33253 -34.04122,21.28996 -50.784,21.9925 -7.15624,0.30029 -8.56909,0.0944 -19.07692,-2.7797 z m 34.58677,-1.89004 c 11.38936,-3.55677 22.78013,-10.01708 34.54223,-19.59074 4.63489,-3.77252 10.30484,-9.59889 10.30484,-10.58911 0,-0.36865 -1.53737,0.3617 -3.41637,1.62301 -3.1049,2.08421 -9.44524,4.63987 -14.29729,5.76295 -1.0386,0.2404 -6.22494,0.7864 -11.52519,1.21335 -11.20802,0.90282 -14.5037,2.0244 -22.29144,7.58621 -4.87564,3.48206 -6.08565,3.99154 -10.44662,4.39858 -6.95095,0.64878 -24.88731,6.22988 -23.78184,7.39999 0.23684,0.25068 3.97897,1.42202 8.31585,2.60296 7.01589,1.91045 8.89961,2.11498 17.08598,1.85512 7.08914,-0.22503 10.64871,-0.74423 15.50985,-2.26232 z m -277.91526,1.30508 c 16.90546,-4.47427 29.15908,-18.17353 32.79349,-36.66238 0.4851,-2.46775 0.95008,-10.62223 1.03331,-18.12108 0.17385,-15.66522 0.13895,-15.78636 -6.44823,-22.38053 -7.10884,-7.11638 -15.32602,-10.20916 -28.85069,-10.85878 -19.22469,-0.92341 -36.22462,4.83777 -45.75773,15.50705 -6.75956,7.56517 -8.76837,14.11771 -8.15925,26.61463 1.37487,28.20721 22.00871,49.40736 46.18835,47.45604 2.63142,-0.21236 6.77175,-0.91208 9.20075,-1.55495 z M 348.0302,548.15721 c 9.34407,-2.86482 18.59461,-11.31725 23.74932,-21.7003 3.83239,-7.71949 5.66376,-15.43456 6.12819,-25.81639 0.66375,-14.83747 -2.01259,-21.10461 -11.94278,-27.96617 -7.85831,-5.42994 -12.97591,-7.10824 -23.21854,-7.61447 -16.89857,-0.83521 -31.29428,4.45523 -41.50846,15.25438 -7.22206,7.63568 -10.15042,16.94008 -8.4938,26.98774 2.25963,13.70493 10.28682,26.48507 21.71849,34.57814 11.45176,8.10728 21.48101,9.98273 33.56758,6.27707 z m -90.08913,-16.70308 c 1.73168,-5.31755 2.02331,-7.43408 1.98592,-14.41337 -0.0308,-5.76255 -0.39211,-8.98656 -1.22213,-10.90741 -1.14327,-2.64575 -1.18043,-2.36768 -1.24924,9.34921 -0.0639,10.87526 -0.76516,16.9685 -2.64523,22.98348 -0.39379,1.25984 -0.33501,1.33443 0.30695,0.38955 0.43669,-0.64275 1.70738,-3.97341 2.82373,-7.40146 z m 171.63648,-1.8656 c 11.52771,-3.79762 20.1993,-13.74244 24.86804,-28.51934 1.77252,-5.61015 1.97404,-7.4003 2.01718,-17.91933 0.0476,-11.59094 0.0287,-11.72878 -2.30289,-16.85484 -2.822,-6.2042 -5.21316,-8.0143 -12.87253,-9.74445 -13.02254,-2.9416 -30.43817,1.09634 -47.47183,11.00671 -8.38569,4.87888 -9.80718,6.33413 -9.80378,10.03657 0.009,9.87859 3.97282,25.88979 8.57193,34.62562 4.71313,8.95241 13.94292,16.75713 21.60606,18.2701 4.45328,0.87923 11.17934,0.48538 15.38782,-0.90104 z m -301.8048,-14.53384 c 0.51956,-1.52084 2.04343,-3.92818 3.38636,-5.34964 l 2.4417,-2.58448 -1.01881,-4.58389 c -2.86096,-12.87217 0.56253,-28.64306 8.47619,-39.04701 1.70612,-2.243 6.30741,-6.60503 10.22511,-9.69342 3.91769,-3.08838 9.01777,-7.32662 11.3335,-9.41831 11.99375,-10.83335 18.86551,-27.37433 20.46088,-49.25126 0.92053,-12.62313 3.53423,-19.14695 10.22018,-25.5097 7.1481,-6.80257 18.6874,-11.69713 32.82604,-13.92364 6.81802,-1.07368 26.94925,-1.32023 54.25788,-0.66449 17.5284,0.42089 17.62271,0.38138 16.20179,-6.78903 -0.48181,-2.43138 -2.39337,-7.72216 -4.24789,-11.75728 -8.9805,-19.53995 -27.31161,-29.76291 -49.13181,-27.40001 -20.42998,2.21235 -49.73927,16.6547 -71.61289,35.28771 -7.74232,6.59528 -19.56083,19.73317 -24.32665,27.04241 -19.33127,29.64793 -27.01006,76.29438 -22.2735,135.30502 0.49012,6.10621 1.10401,11.10219 1.3642,11.10219 0.26019,0 0.89816,-1.24432 1.41772,-2.76517 z m 33.33509,-10.8816 c 5.45004,-1.32171 5.72532,-1.49922 7.943,-5.1218 3.18998,-5.21084 9.7341,-11.08527 15.92031,-14.29112 17.38433,-9.00896 42.97117,-9.65306 57.84784,-1.4562 4.53855,2.50069 11.68316,9.30703 13.59099,12.94751 0.69296,1.32229 0.98561,1.25454 4.46204,-1.0329 7.79797,-5.13094 20.32459,-4.7412 26.8817,0.83636 2.4261,2.06367 2.77544,2.17542 2.77544,0.88787 0,-0.81011 0.63866,-3.43779 1.41925,-5.83927 3.7376,-11.49877 14.82466,-20.8726 30.74107,-25.99078 5.71951,-1.83921 7.7395,-2.08819 17.1557,-2.11467 14.62913,-0.0411 19.77354,1.75482 31.72659,11.0761 1.28012,0.99828 1.27441,0.81623 -0.11042,-3.52428 -1.35997,-4.26258 -1.82451,-4.8318 -6.76343,-8.28743 -7.70624,-5.39185 -11.44128,-6.39794 -23.38062,-6.29788 -8.72717,0.0732 -11.68407,0.48192 -24.28998,3.35798 -7.89425,1.8011 -16.91643,3.85864 -20.0493,4.57234 -5.35776,1.22054 -5.77114,1.21822 -6.95887,-0.039 -1.19296,-1.26271 -1.07636,-1.52002 2.10963,-4.6556 4.41741,-4.34753 13.49323,-9.40027 20.85021,-11.60785 7.76309,-2.32945 22.55205,-2.55528 29.81043,-0.45524 6.07228,1.75688 17.05364,7.20587 21.14429,10.49189 1.73013,1.38981 3.14569,2.31217 3.14569,2.04967 0,-0.2625 -1.17986,-2.5331 -2.62192,-5.04579 -3.9406,-6.86626 -12.70793,-16.26437 -24.6035,-26.37366 -16.32339,-13.87221 -20.81123,-20.36909 -28.00252,-40.53826 -4.58373,-12.85586 -6.42214,-16.62873 -11.06306,-22.70422 -2.08596,-2.73076 -4.10426,-5.6662 -4.48511,-6.52321 -0.67744,-1.52441 -1.41398,-1.5582 -33.9638,-1.5582 -31.30291,0 -33.70682,0.0993 -40.63195,1.67918 -17.97542,4.10076 -28.22084,10.70422 -33.4157,21.53738 -2.14717,4.47764 -2.47339,6.04457 -3.05232,14.66104 -1.83537,27.317 -10.38712,43.99268 -30.10234,58.69881 -10.90374,8.1334 -16.46588,15.21211 -19.28306,24.54076 -1.98749,6.58126 -2.55435,15.91274 -1.38673,22.82832 l 0.91956,5.4465 10.0376,-0.39262 c 5.5369,-0.21657 12.56902,-1.00652 15.68329,-1.76176 z m -4.87095,-15.89281 c -0.50103,-0.85807 3.63544,-6.8277 8.32827,-12.0191 7.55735,-8.36027 17.16407,-14.55477 27.46371,-17.70888 7.68565,-2.35362 25.63073,-2.96501 35.3828,-1.20551 9.97988,1.80061 16.21067,4.00271 18.9281,6.6896 1.94488,1.92302 2.19283,2.5466 1.53217,3.85324 -1.13874,2.25217 -4.64353,2.6817 -16.71667,2.04874 -24.69322,-1.29461 -37.05834,-0.2242 -49.86265,4.31649 -8.25486,2.92735 -13.76181,6.00773 -19.51897,10.91818 -4.83708,4.12569 -4.91618,4.17009 -5.53676,3.10724 z m 25.12362,-16.34915 c 13.10622,-4.52961 28.35796,-5.72614 49.50933,-3.88412 9.75057,0.84915 15.19699,0.37666 15.07473,-1.3078 -0.1115,-1.53624 -8.48498,-5.15577 -15.47084,-6.68742 -9.41725,-2.06474 -26.15315,-2.29131 -33.92332,-0.45925 -11.08874,2.61452 -19.67833,7.44519 -27.75323,15.60804 l -5.23838,5.29543 5.52045,-3.11415 c 3.03625,-1.71279 8.56281,-4.16561 12.28126,-5.45073 z m 356.09106,25.99601 c 6.45224,-1.77886 11.25075,-4.80787 16.59403,-10.47481 5.31239,-5.6342 10.09832,-14.41894 12.10643,-22.22179 1.90223,-7.39142 2.26936,-21.82234 0.82258,-32.3327 -1.99881,-14.52051 -1.91765,-14.3335 -7.47783,-17.23083 -4.46921,-2.32884 -5.34131,-2.50565 -12.31062,-2.49584 -11.62333,0.0164 -24.94891,4.01518 -41.60852,12.48615 -7.63403,3.8817 -15.9818,12.61058 -18.35321,19.19114 -2.11089,5.85765 -2.06858,9.90956 0.18195,17.42023 7.39694,24.6857 30.39861,41.07497 50.04519,35.65845 z m -155.2379,-32.89138 c 0.041,-13.99786 0.21582,-16.05556 1.9365,-22.78871 3.18853,-12.47681 6.734,-19.29225 17.23537,-33.13144 8.25426,-10.87784 8.84666,-12.42745 13.19921,-34.527 1.72993,-8.78348 1.88629,-10.50234 1.00888,-11.09026 -1.74456,-1.16894 -2.43776,-0.82283 -4.35062,2.17231 -1.01209,1.58471 -5.87567,7.52661 -10.80796,13.20423 -10.34509,11.90836 -13.77755,16.56734 -17.45274,23.68915 -4.16792,8.0766 -5.59807,13.34002 -5.59807,20.60272 0,10.52054 -0.74974,16.07466 -2.13248,15.7975 -1.69566,-0.33989 -1.84547,-3.39014 -0.78251,-15.93209 1.04249,-12.30044 0.70998,-15.3277 -3.03539,-27.63537 -7.3674,-24.21008 -22.65663,-43.62581 -42.26155,-53.66778 -9.89963,-5.07076 -20.99159,-7.66234 -28.52866,-6.66558 -5.83044,0.77106 -5.89711,0.89193 -3.82504,6.93422 1.02366,2.98506 1.80721,6.97693 1.80721,9.20703 0,9.7719 7.74279,17.97293 26.24964,27.80317 18.12274,9.62621 29.73422,23.3416 42.2533,49.90924 8.27413,17.55915 11.61567,28.35447 13.95335,45.07833 0.49416,3.53517 0.94078,6.42758 0.99249,6.42758 0.0518,0 0.1143,-6.92426 0.13907,-15.38725 z m 8.9163,-7.37308 c 6.58497,-8.51946 16.91879,-16.05393 27.18646,-19.82186 5.03859,-1.84902 6.97725,-2.13611 14.64035,-2.16803 7.74328,-0.0323 9.30726,0.18961 12.68014,1.79879 4.5254,2.15903 9.76969,7.79853 9.76969,10.50593 0,4.1132 -3.18942,4.62525 -17.83569,2.86345 -6.0971,-0.73342 -8.749,-0.73311 -12.09979,0.002 -5.97499,1.30976 -17.80367,5.90122 -21.2713,8.25674 -1.5915,1.08108 -2.23118,1.71331 -1.42152,1.40495 16.23554,-6.18322 25.22383,-7.96539 34.59483,-6.8594 4.73952,0.55937 11.41881,2.72247 14.0576,4.55257 1.50684,1.04506 1.65589,0.98849 2.07721,-0.78833 0.24963,-1.05279 1.75799,-2.82766 3.3519,-3.94413 2.39918,-1.68055 4.14957,-2.13406 10.16915,-2.63475 4.49993,-0.37429 8.50991,-1.18536 10.52142,-2.12811 3.72701,-1.74676 8.77812,-6.59898 10.46606,-10.05398 2.43023,-4.97436 10.50401,-11.81649 19.21258,-16.28174 9.66558,-4.95595 21.86886,-9.36222 29.31624,-10.58528 8.23842,-1.35298 20.12387,-0.60865 23.93388,1.49887 3.50494,1.93877 3.76092,1.63793 1.68006,-1.9744 -1.73273,-3.00812 -6.64484,-6.45533 -9.19833,-6.45533 -2.63514,0 -18.00406,3.51726 -25.71558,5.88515 -9.18602,2.82065 -19.09928,7.61674 -30.19671,14.60933 -10.05695,6.33698 -12.99499,7.23097 -14.43089,4.39106 -3.59749,-7.11503 10.08497,-20.59603 28.55142,-28.13103 10.19403,-4.15954 17.20243,-5.53106 26.40121,-5.16663 7.61091,0.30153 8.57328,0.52367 13.61711,3.14327 2.98507,1.55035 5.7132,2.52413 6.06252,2.16396 0.99475,-1.02565 -0.0859,-2.22471 -3.81547,-4.23368 -1.89431,-1.02038 -10.39996,-6.30884 -18.90146,-11.75213 -23.13664,-14.81382 -37.09692,-21.44734 -50.95384,-24.2118 -8.8885,-1.77324 -24.68374,-1.13074 -40.3176,1.64002 -6.47733,1.14797 -14.73305,2.13911 -18.34606,2.20254 l -6.56909,0.11533 -0.94398,4.28506 c -0.51919,2.35678 -1.64227,8.3169 -2.49573,13.24472 -1.93694,11.1837 -5.36522,18.98668 -12.1517,27.65809 -9.70188,12.39655 -14.04543,20.7917 -16.76507,32.40325 -1.3731,5.86247 -2.70653,17.16848 -2.70236,22.91293 l 0.003,3.8955 1.88135,-3.48399 c 1.03474,-1.9162 3.71591,-5.85751 5.95816,-8.75847 z m 8.08084,2.08306 c 8.07068,-5.09843 17.59424,-9.11663 25.75646,-10.86723 4.91921,-1.05504 6.998,-1.13574 11.64261,-0.45195 3.10979,0.45782 8.11441,0.8324 11.12136,0.8324 6.09524,0 6.68764,-0.67211 4.04924,-4.59408 -3.5573,-5.28789 -13.27207,-8.33137 -22.59853,-7.07975 -10.68101,1.43342 -17.49645,4.4143 -26.60997,11.63848 -6.14922,4.87441 -9.00515,7.87099 -12.58255,13.20219 -2.93992,4.38121 -2.91298,5.33184 0.0918,3.24079 1.31571,-0.9156 5.424,-3.57998 9.12953,-5.92085 z m -90.42426,-0.70222 c 21.9582,-5.09576 32.6936,-6.48371 40.62741,-5.25263 2.63142,0.40832 4.88966,0.64211 5.01833,0.51955 0.41033,-0.39088 -11.35606,-4.97685 -14.96694,-5.83337 -5.85456,-1.38876 -17.68715,-1.0243 -24.27818,0.74779 -6.77239,1.82086 -16.48719,6.66176 -20.24165,10.08646 l -2.57621,2.34994 2.4321,0.0316 c 1.33766,0.0174 7.63097,-1.17482 13.98514,-2.6494 z m 263.37169,-31.20984 c 0.34043,-8.17003 0.16861,-12.63725 -0.68463,-17.80014 -0.62652,-3.79101 -1.32897,-7.09369 -1.561,-7.33928 -0.23204,-0.24561 -2.47969,-0.89542 -4.99478,-1.44402 -4.38061,-0.95552 -6.18899,-0.82374 -4.54426,0.33114 1.42852,1.00307 5.29317,12.16785 6.79486,19.62994 0.81921,4.07081 1.91283,11.08272 2.43027,15.58203 0.85382,7.42422 0.99462,7.89243 1.52292,5.06415 0.32017,-1.71402 0.78665,-8.02474 1.03662,-14.02382 z m -83.2609,-0.28614 c 1.61933,-0.78131 4.76599,-2.65559 6.99257,-4.16506 6.74184,-4.57053 18.31753,-10.3954 26.63723,-13.40385 7.52476,-2.72098 23.42244,-6.66744 26.91114,-6.68045 2.60896,-0.01 1.94195,-1.20777 -1.47212,-2.64413 -8.50915,-3.57992 -18.45303,-3.31701 -30.92385,0.81761 -18.03698,5.98004 -32.92936,17.71212 -32.92936,25.94143 0,1.94548 0.97415,1.97286 4.78439,0.13445 z m 71.29598,-22.30779 c -0.23303,-0.64276 -0.94839,-1.16865 -1.58971,-1.16865 -0.94467,0 -0.89479,0.21714 0.26277,1.14388 1.79848,1.43984 1.84023,1.44062 1.32694,0.0248 z m 7.92025,-7.22391 c -5.03171,-9.95161 -22.93147,-28.67762 -35.78869,-37.44069 -9.81129,-6.68708 -23.31437,-12.37655 -39.99737,-16.85276 -24.62196,-6.60631 -48.68182,-5.59542 -64.19053,2.69698 -5.70753,3.05177 -10.06299,6.89762 -11.64528,10.28271 -1.8991,4.06288 -1.33007,4.91597 4.07068,6.10273 4.57796,1.00595 7.92639,0.72362 24.90742,-2.10013 16.17216,-2.68925 27.55003,-3.16082 36.64973,-1.51902 14.66618,2.64613 30.26582,9.74739 51.67747,23.52461 22.15262,14.254 26.55305,16.4746 32.96459,16.63495 1.73975,0.0436 1.94439,-0.15771 1.35198,-1.32938 z"
       id="path1" />
  </g>
</svg>
